<?xml version="1.0" encoding="UTF-8" standalone="no"?>
<!DOCTYPE svg PUBLIC "-//W3C//DTD SVG 1.1//EN"
 "http://www.w3.org/Graphics/SVG/1.1/DTD/svg11.dtd">
<!-- Generated by graphviz version 2.43.0 (0)
 -->
<!-- Title: snakemake_dag Pages: 1 -->
<svg width="625pt" height="980pt"
 viewBox="0.00 0.00 624.79 980.00" xmlns="http://www.w3.org/2000/svg" xmlns:xlink="http://www.w3.org/1999/xlink">
<g id="graph0" class="graph" transform="scale(1 1) rotate(0) translate(4 976)">
<title>snakemake_dag</title>
<polygon fill="white" stroke="transparent" points="-4,4 -4,-976 620.79,-976 620.79,4 -4,4"/>
<!-- 1 -->
<g id="node1" class="node">
<title>1</title>
<path fill="none" stroke="#b6d856" stroke-width="2" d="M98.74,-180C98.74,-180 33.74,-180 33.74,-180 27.74,-180 21.74,-174 21.74,-168 21.74,-168 21.74,-156 21.74,-156 21.74,-150 27.74,-144 33.74,-144 33.74,-144 98.74,-144 98.74,-144 104.74,-144 110.74,-150 110.74,-156 110.74,-156 110.74,-168 110.74,-168 110.74,-174 104.74,-180 98.74,-180"/>
<text text-anchor="middle" x="66.24" y="-159.5" font-family="sans" font-size="10.00">trinity_cleanup</text>
</g>
<!-- 2 -->
<g id="node2" class="node">
<title>2</title>
<path fill="none" stroke="#88d856" stroke-width="2" d="M129.24,-252C129.24,-252 99.24,-252 99.24,-252 93.24,-252 87.24,-246 87.24,-240 87.24,-240 87.24,-228 87.24,-228 87.24,-222 93.24,-216 99.24,-216 99.24,-216 129.24,-216 129.24,-216 135.24,-216 141.24,-222 141.24,-228 141.24,-228 141.24,-240 141.24,-240 141.24,-246 135.24,-252 129.24,-252"/>
<text text-anchor="middle" x="114.24" y="-231.5" font-family="sans" font-size="10.00">trinity</text>
</g>
<!-- 2&#45;&gt;1 -->
<g id="edge1" class="edge">
<title>2&#45;&gt;1</title>
<path fill="none" stroke="grey" stroke-width="2" d="M102.37,-215.7C96.74,-207.47 89.88,-197.48 83.67,-188.42"/>
<polygon fill="grey" stroke="grey" stroke-width="2" points="86.51,-186.37 77.97,-180.1 80.74,-190.33 86.51,-186.37"/>
</g>
<!-- 11 -->
<g id="node11" class="node">
<title>11</title>
<path fill="none" stroke="#5682d8" stroke-width="2" d="M275.24,-36C275.24,-36 177.24,-36 177.24,-36 171.24,-36 165.24,-30 165.24,-24 165.24,-24 165.24,-12 165.24,-12 165.24,-6 171.24,0 177.24,0 177.24,0 275.24,0 275.24,0 281.24,0 287.24,-6 287.24,-12 287.24,-12 287.24,-24 287.24,-24 287.24,-30 281.24,-36 275.24,-36"/>
<text text-anchor="middle" x="226.24" y="-15.5" font-family="sans" font-size="10.00">abundance_to_matrix</text>
</g>
<!-- 2&#45;&gt;11 -->
<g id="edge13" class="edge">
<title>2&#45;&gt;11</title>
<path fill="none" stroke="grey" stroke-width="2" d="M87.1,-227.24C62.74,-220.47 28.4,-206.61 12.24,-180 3.93,-166.32 4.54,-158.03 12.24,-144 41.89,-89.96 105.37,-57.25 155.54,-38.93"/>
<polygon fill="grey" stroke="grey" stroke-width="2" points="156.8,-42.2 165.06,-35.56 154.46,-35.6 156.8,-42.2"/>
</g>
<!-- 12 -->
<g id="node12" class="node">
<title>12</title>
<path fill="none" stroke="#56d882" stroke-width="2" d="M349.24,-108C349.24,-108 269.24,-108 269.24,-108 263.24,-108 257.24,-102 257.24,-96 257.24,-96 257.24,-84 257.24,-84 257.24,-78 263.24,-72 269.24,-72 269.24,-72 349.24,-72 349.24,-72 355.24,-72 361.24,-78 361.24,-84 361.24,-84 361.24,-96 361.24,-96 361.24,-102 355.24,-108 349.24,-108"/>
<text text-anchor="middle" x="309.24" y="-87.5" font-family="sans" font-size="10.00">trinity_abundance</text>
</g>
<!-- 2&#45;&gt;12 -->
<g id="edge19" class="edge">
<title>2&#45;&gt;12</title>
<path fill="none" stroke="grey" stroke-width="2" d="M127.87,-215.88C143.89,-196.58 172.01,-165.16 201.24,-144 218.32,-131.64 238.72,-120.79 257.17,-112.17"/>
<polygon fill="grey" stroke="grey" stroke-width="2" points="258.68,-115.33 266.33,-108 255.78,-108.96 258.68,-115.33"/>
</g>
<!-- 13 -->
<g id="node13" class="node">
<title>13</title>
<path fill="none" stroke="#d88556" stroke-width="2" d="M362.74,-180C362.74,-180 255.74,-180 255.74,-180 249.74,-180 243.74,-174 243.74,-168 243.74,-168 243.74,-156 243.74,-156 243.74,-150 249.74,-144 255.74,-144 255.74,-144 362.74,-144 362.74,-144 368.74,-144 374.74,-150 374.74,-156 374.74,-156 374.74,-168 374.74,-168 374.74,-174 368.74,-180 362.74,-180"/>
<text text-anchor="middle" x="309.24" y="-159.5" font-family="sans" font-size="10.00">trinity_abundance_prep</text>
</g>
<!-- 2&#45;&gt;13 -->
<g id="edge21" class="edge">
<title>2&#45;&gt;13</title>
<path fill="none" stroke="grey" stroke-width="2" d="M141.35,-223.27C169.88,-213.02 215.63,-196.6 252.17,-183.48"/>
<polygon fill="grey" stroke="grey" stroke-width="2" points="253.5,-186.73 261.73,-180.05 251.14,-180.14 253.5,-186.73"/>
</g>
<!-- 21 -->
<g id="node21" class="node">
<title>21</title>
<path fill="none" stroke="#d86e56" stroke-width="2" d="M464.74,-36C464.74,-36 317.74,-36 317.74,-36 311.74,-36 305.74,-30 305.74,-24 305.74,-24 305.74,-12 305.74,-12 305.74,-6 311.74,0 317.74,0 317.74,0 464.74,0 464.74,0 470.74,0 476.74,-6 476.74,-12 476.74,-12 476.74,-24 476.74,-24 476.74,-30 470.74,-36 464.74,-36"/>
<text text-anchor="middle" x="391.24" y="-15.5" font-family="sans" font-size="10.00">generate_deseq_object_salmon</text>
</g>
<!-- 2&#45;&gt;21 -->
<g id="edge31" class="edge">
<title>2&#45;&gt;21</title>
<path fill="none" stroke="grey" stroke-width="2" d="M119.84,-215.98C126.63,-197.05 139.42,-166.23 157.24,-144 189.5,-103.76 203.28,-97.27 248.24,-72 271.57,-58.88 298.77,-47.86 323.15,-39.33"/>
<polygon fill="grey" stroke="grey" stroke-width="2" points="324.36,-42.61 332.69,-36.06 322.1,-35.99 324.36,-42.61"/>
</g>
<!-- 3 -->
<g id="node3" class="node">
<title>3</title>
<path fill="none" stroke="#9fd856" stroke-width="2" d="M136.74,-324C136.74,-324 41.74,-324 41.74,-324 35.74,-324 29.74,-318 29.74,-312 29.74,-312 29.74,-300 29.74,-300 29.74,-294 35.74,-288 41.74,-288 41.74,-288 136.74,-288 136.74,-288 142.74,-288 148.74,-294 148.74,-300 148.74,-300 148.74,-312 148.74,-312 148.74,-318 142.74,-324 136.74,-324"/>
<text text-anchor="middle" x="89.24" y="-303.5" font-family="sans" font-size="10.00">join_merged_with_r1</text>
</g>
<!-- 3&#45;&gt;2 -->
<g id="edge2" class="edge">
<title>3&#45;&gt;2</title>
<path fill="none" stroke="grey" stroke-width="2" d="M95.42,-287.7C98.23,-279.81 101.63,-270.3 104.76,-261.55"/>
<polygon fill="grey" stroke="grey" stroke-width="2" points="108.06,-262.7 108.13,-252.1 101.47,-260.34 108.06,-262.7"/>
</g>
<!-- 4 -->
<g id="node4" class="node">
<title>4</title>
<path fill="none" stroke="#59d856" stroke-width="2" d="M175.24,-396C175.24,-396 145.24,-396 145.24,-396 139.24,-396 133.24,-390 133.24,-384 133.24,-384 133.24,-372 133.24,-372 133.24,-366 139.24,-360 145.24,-360 145.24,-360 175.24,-360 175.24,-360 181.24,-360 187.24,-366 187.24,-372 187.24,-372 187.24,-384 187.24,-384 187.24,-390 181.24,-396 175.24,-396"/>
<text text-anchor="middle" x="160.24" y="-375.5" font-family="sans" font-size="10.00">merge</text>
</g>
<!-- 4&#45;&gt;2 -->
<g id="edge3" class="edge">
<title>4&#45;&gt;2</title>
<path fill="none" stroke="grey" stroke-width="2" d="M162.79,-359.98C164.85,-341.6 166.11,-311.75 157.24,-288 153.4,-277.74 146.73,-267.98 139.77,-259.69"/>
<polygon fill="grey" stroke="grey" stroke-width="2" points="142.37,-257.35 133.09,-252.23 137.15,-262.02 142.37,-257.35"/>
</g>
<!-- 4&#45;&gt;3 -->
<g id="edge5" class="edge">
<title>4&#45;&gt;3</title>
<path fill="none" stroke="grey" stroke-width="2" d="M142.69,-359.7C134,-351.14 123.38,-340.66 113.89,-331.3"/>
<polygon fill="grey" stroke="grey" stroke-width="2" points="116.17,-328.63 106.59,-324.1 111.25,-333.62 116.17,-328.63"/>
</g>
<!-- 5 -->
<g id="node5" class="node">
<title>5</title>
<path fill="none" stroke="#569ad8" stroke-width="2" d="M230.24,-612C230.24,-612 200.24,-612 200.24,-612 194.24,-612 188.24,-606 188.24,-600 188.24,-600 188.24,-588 188.24,-588 188.24,-582 194.24,-576 200.24,-576 200.24,-576 230.24,-576 230.24,-576 236.24,-576 242.24,-582 242.24,-588 242.24,-588 242.24,-600 242.24,-600 242.24,-606 236.24,-612 230.24,-612"/>
<text text-anchor="middle" x="215.24" y="-591.5" font-family="sans" font-size="10.00">split</text>
</g>
<!-- 5&#45;&gt;2 -->
<g id="edge4" class="edge">
<title>5&#45;&gt;2</title>
<path fill="none" stroke="grey" stroke-width="2" d="M188.14,-588.21C130.55,-576.32 1.24,-539.73 1.24,-451 1.24,-451 1.24,-451 1.24,-377 1.24,-336.55 -3.72,-320.59 20.24,-288 34.35,-268.8 57.64,-255.6 77.51,-247.17"/>
<polygon fill="grey" stroke="grey" stroke-width="2" points="78.94,-250.37 86.93,-243.41 76.35,-243.86 78.94,-250.37"/>
</g>
<!-- 5&#45;&gt;4 -->
<g id="edge6" class="edge">
<title>5&#45;&gt;4</title>
<path fill="none" stroke="grey" stroke-width="2" d="M210.66,-575.82C207.91,-565.46 204.35,-551.98 201.24,-540 189.07,-493.09 175.22,-438.41 167.13,-406.36"/>
<polygon fill="grey" stroke="grey" stroke-width="2" points="170.46,-405.25 164.62,-396.4 163.67,-406.96 170.46,-405.25"/>
</g>
<!-- 5&#45;&gt;12 -->
<g id="edge17" class="edge">
<title>5&#45;&gt;12</title>
<path fill="none" stroke="grey" stroke-width="2" d="M215.24,-575.95C215.24,-549.29 215.24,-496.11 215.24,-451 215.24,-451 215.24,-451 215.24,-233 215.24,-192.55 211.97,-177.77 234.24,-144 242.22,-131.9 253.99,-121.7 265.86,-113.59"/>
<polygon fill="grey" stroke="grey" stroke-width="2" points="267.95,-116.41 274.46,-108.06 264.16,-110.53 267.95,-116.41"/>
</g>
<!-- 18 -->
<g id="node18" class="node">
<title>18</title>
<path fill="none" stroke="#56d8b1" stroke-width="2" d="M392.74,-468C392.74,-468 313.74,-468 313.74,-468 307.74,-468 301.74,-462 301.74,-456 301.74,-456 301.74,-444 301.74,-444 301.74,-438 307.74,-432 313.74,-432 313.74,-432 392.74,-432 392.74,-432 398.74,-432 404.74,-438 404.74,-444 404.74,-444 404.74,-456 404.74,-456 404.74,-462 398.74,-468 392.74,-468"/>
<text text-anchor="middle" x="353.24" y="-447.5" font-family="sans" font-size="10.00">star_second_pass</text>
</g>
<!-- 5&#45;&gt;18 -->
<g id="edge27" class="edge">
<title>5&#45;&gt;18</title>
<path fill="none" stroke="grey" stroke-width="2" d="M223.47,-575.76C233.2,-556.64 250.81,-525.64 272.24,-504 283.78,-492.34 298.3,-481.87 311.84,-473.37"/>
<polygon fill="grey" stroke="grey" stroke-width="2" points="313.83,-476.26 320.56,-468.08 310.2,-470.28 313.83,-476.26"/>
</g>
<!-- 20 -->
<g id="node20" class="node">
<title>20</title>
<path fill="none" stroke="#ced856" stroke-width="2" d="M356.74,-540C356.74,-540 293.74,-540 293.74,-540 287.74,-540 281.74,-534 281.74,-528 281.74,-528 281.74,-516 281.74,-516 281.74,-510 287.74,-504 293.74,-504 293.74,-504 356.74,-504 356.74,-504 362.74,-504 368.74,-510 368.74,-516 368.74,-516 368.74,-528 368.74,-528 368.74,-534 362.74,-540 356.74,-540"/>
<text text-anchor="middle" x="325.24" y="-519.5" font-family="sans" font-size="10.00">star_first_pass</text>
</g>
<!-- 5&#45;&gt;20 -->
<g id="edge29" class="edge">
<title>5&#45;&gt;20</title>
<path fill="none" stroke="grey" stroke-width="2" d="M242.15,-575.88C256.4,-566.81 274.09,-555.55 289.47,-545.76"/>
<polygon fill="grey" stroke="grey" stroke-width="2" points="291.67,-548.51 298.23,-540.19 287.91,-542.61 291.67,-548.51"/>
</g>
<!-- 6 -->
<g id="node6" class="node">
<title>6</title>
<path fill="none" stroke="#56b1d8" stroke-width="2" d="M230.24,-684C230.24,-684 200.24,-684 200.24,-684 194.24,-684 188.24,-678 188.24,-672 188.24,-672 188.24,-660 188.24,-660 188.24,-654 194.24,-648 200.24,-648 200.24,-648 230.24,-648 230.24,-648 236.24,-648 242.24,-654 242.24,-660 242.24,-660 242.24,-672 242.24,-672 242.24,-678 236.24,-684 230.24,-684"/>
<text text-anchor="middle" x="215.24" y="-663.5" font-family="sans" font-size="10.00">trim</text>
</g>
<!-- 6&#45;&gt;5 -->
<g id="edge7" class="edge">
<title>6&#45;&gt;5</title>
<path fill="none" stroke="grey" stroke-width="2" d="M215.24,-647.7C215.24,-639.98 215.24,-630.71 215.24,-622.11"/>
<polygon fill="grey" stroke="grey" stroke-width="2" points="218.74,-622.1 215.24,-612.1 211.74,-622.1 218.74,-622.1"/>
</g>
<!-- 7 -->
<g id="node7" class="node">
<title>7</title>
<path fill="none" stroke="#70d856" stroke-width="2" d="M230.24,-756C230.24,-756 200.24,-756 200.24,-756 194.24,-756 188.24,-750 188.24,-744 188.24,-744 188.24,-732 188.24,-732 188.24,-726 194.24,-720 200.24,-720 200.24,-720 230.24,-720 230.24,-720 236.24,-720 242.24,-726 242.24,-732 242.24,-732 242.24,-744 242.24,-744 242.24,-750 236.24,-756 230.24,-756"/>
<text text-anchor="middle" x="215.24" y="-735.5" font-family="sans" font-size="10.00">decon</text>
</g>
<!-- 7&#45;&gt;6 -->
<g id="edge8" class="edge">
<title>7&#45;&gt;6</title>
<path fill="none" stroke="grey" stroke-width="2" d="M215.24,-719.7C215.24,-711.98 215.24,-702.71 215.24,-694.11"/>
<polygon fill="grey" stroke="grey" stroke-width="2" points="218.74,-694.1 215.24,-684.1 211.74,-694.1 218.74,-694.1"/>
</g>
<!-- 8 -->
<g id="node8" class="node">
<title>8</title>
<path fill="none" stroke="#56d8c9" stroke-width="2" d="M230.24,-828C230.24,-828 200.24,-828 200.24,-828 194.24,-828 188.24,-822 188.24,-816 188.24,-816 188.24,-804 188.24,-804 188.24,-798 194.24,-792 200.24,-792 200.24,-792 230.24,-792 230.24,-792 236.24,-792 242.24,-798 242.24,-804 242.24,-804 242.24,-816 242.24,-816 242.24,-822 236.24,-828 230.24,-828"/>
<text text-anchor="middle" x="215.24" y="-807.5" font-family="sans" font-size="10.00">repair</text>
</g>
<!-- 8&#45;&gt;7 -->
<g id="edge9" class="edge">
<title>8&#45;&gt;7</title>
<path fill="none" stroke="grey" stroke-width="2" d="M215.24,-791.7C215.24,-783.98 215.24,-774.71 215.24,-766.11"/>
<polygon fill="grey" stroke="grey" stroke-width="2" points="218.74,-766.1 215.24,-756.1 211.74,-766.1 218.74,-766.1"/>
</g>
<!-- 9 -->
<g id="node9" class="node">
<title>9</title>
<path fill="none" stroke="#56d89a" stroke-width="2" d="M250.74,-900C250.74,-900 179.74,-900 179.74,-900 173.74,-900 167.74,-894 167.74,-888 167.74,-888 167.74,-876 167.74,-876 167.74,-870 173.74,-864 179.74,-864 179.74,-864 250.74,-864 250.74,-864 256.74,-864 262.74,-870 262.74,-876 262.74,-876 262.74,-888 262.74,-888 262.74,-894 256.74,-900 250.74,-900"/>
<text text-anchor="middle" x="215.24" y="-879.5" font-family="sans" font-size="10.00">check_barcodes</text>
</g>
<!-- 9&#45;&gt;8 -->
<g id="edge10" class="edge">
<title>9&#45;&gt;8</title>
<path fill="none" stroke="grey" stroke-width="2" d="M215.24,-863.7C215.24,-855.98 215.24,-846.71 215.24,-838.11"/>
<polygon fill="grey" stroke="grey" stroke-width="2" points="218.74,-838.1 215.24,-828.1 211.74,-838.1 218.74,-838.1"/>
</g>
<!-- 10 -->
<g id="node10" class="node">
<title>10</title>
<path fill="none" stroke="#d85656" stroke-width="2" d="M256.24,-972C256.24,-972 174.24,-972 174.24,-972 168.24,-972 162.24,-966 162.24,-960 162.24,-960 162.24,-948 162.24,-948 162.24,-942 168.24,-936 174.24,-936 174.24,-936 256.24,-936 256.24,-936 262.24,-936 268.24,-942 268.24,-948 268.24,-948 268.24,-960 268.24,-960 268.24,-966 262.24,-972 256.24,-972"/>
<text text-anchor="middle" x="215.24" y="-951.5" font-family="sans" font-size="10.00">combine_read_file</text>
</g>
<!-- 10&#45;&gt;9 -->
<g id="edge11" class="edge">
<title>10&#45;&gt;9</title>
<path fill="none" stroke="grey" stroke-width="2" d="M215.24,-935.7C215.24,-927.98 215.24,-918.71 215.24,-910.11"/>
<polygon fill="grey" stroke="grey" stroke-width="2" points="218.74,-910.1 215.24,-900.1 211.74,-910.1 218.74,-910.1"/>
</g>
<!-- 12&#45;&gt;11 -->
<g id="edge14" class="edge">
<title>12&#45;&gt;11</title>
<path fill="none" stroke="grey" stroke-width="2" d="M288.72,-71.7C278.37,-62.97 265.65,-52.24 254.4,-42.75"/>
<polygon fill="grey" stroke="grey" stroke-width="2" points="256.42,-39.88 246.52,-36.1 251.91,-45.23 256.42,-39.88"/>
</g>
<!-- 12&#45;&gt;21 -->
<g id="edge32" class="edge">
<title>12&#45;&gt;21</title>
<path fill="none" stroke="grey" stroke-width="2" d="M329.51,-71.7C339.74,-62.97 352.3,-52.24 363.42,-42.75"/>
<polygon fill="grey" stroke="grey" stroke-width="2" points="365.87,-45.26 371.2,-36.1 361.32,-39.94 365.87,-45.26"/>
</g>
<!-- 13&#45;&gt;12 -->
<g id="edge15" class="edge">
<title>13&#45;&gt;12</title>
<path fill="none" stroke="grey" stroke-width="2" d="M309.24,-143.7C309.24,-135.98 309.24,-126.71 309.24,-118.11"/>
<polygon fill="grey" stroke="grey" stroke-width="2" points="312.74,-118.1 309.24,-108.1 305.74,-118.1 312.74,-118.1"/>
</g>
<!-- 14 -->
<g id="node14" class="node">
<title>14</title>
<path fill="none" stroke="#56c9d8" stroke-width="2" d="M505.74,-180C505.74,-180 404.74,-180 404.74,-180 398.74,-180 392.74,-174 392.74,-168 392.74,-168 392.74,-156 392.74,-156 392.74,-150 398.74,-144 404.74,-144 404.74,-144 505.74,-144 505.74,-144 511.74,-144 517.74,-150 517.74,-156 517.74,-156 517.74,-168 517.74,-168 517.74,-174 511.74,-180 505.74,-180"/>
<text text-anchor="middle" x="455.24" y="-159.5" font-family="sans" font-size="10.00">generate_samples_txt</text>
</g>
<!-- 14&#45;&gt;12 -->
<g id="edge16" class="edge">
<title>14&#45;&gt;12</title>
<path fill="none" stroke="grey" stroke-width="2" d="M419.52,-143.88C399.74,-134.39 374.97,-122.51 353.91,-112.42"/>
<polygon fill="grey" stroke="grey" stroke-width="2" points="355.37,-109.24 344.84,-108.07 352.34,-115.55 355.37,-109.24"/>
</g>
<!-- 15 -->
<g id="node15" class="node">
<title>15</title>
<path fill="none" stroke="#566bd8" stroke-width="2" d="M601.24,-252C601.24,-252 491.24,-252 491.24,-252 485.24,-252 479.24,-246 479.24,-240 479.24,-240 479.24,-228 479.24,-228 479.24,-222 485.24,-216 491.24,-216 491.24,-216 601.24,-216 601.24,-216 607.24,-216 613.24,-222 613.24,-228 613.24,-228 613.24,-240 613.24,-240 613.24,-246 607.24,-252 601.24,-252"/>
<text text-anchor="middle" x="546.24" y="-231.5" font-family="sans" font-size="10.00">trinity_genome_cleanup</text>
</g>
<!-- 15&#45;&gt;11 -->
<g id="edge12" class="edge">
<title>15&#45;&gt;11</title>
<path fill="none" stroke="grey" stroke-width="2" d="M552.32,-215.97C558.01,-196.75 563.69,-165.39 549.24,-144 520.15,-100.94 383.11,-59.05 297.14,-36.37"/>
<polygon fill="grey" stroke="grey" stroke-width="2" points="298,-32.98 287.44,-33.84 296.23,-39.75 298,-32.98"/>
</g>
<!-- 15&#45;&gt;12 -->
<g id="edge18" class="edge">
<title>15&#45;&gt;12</title>
<path fill="none" stroke="grey" stroke-width="2" d="M547.6,-215.78C548.17,-195.8 545.85,-163.14 527.24,-144 505.82,-121.97 428,-106.96 371.43,-98.69"/>
<polygon fill="grey" stroke="grey" stroke-width="2" points="371.88,-95.22 361.49,-97.27 370.89,-102.15 371.88,-95.22"/>
</g>
<!-- 15&#45;&gt;13 -->
<g id="edge20" class="edge">
<title>15&#45;&gt;13</title>
<path fill="none" stroke="grey" stroke-width="2" d="M488.57,-215.97C454.88,-206.01 412.19,-193.41 376.91,-182.99"/>
<polygon fill="grey" stroke="grey" stroke-width="2" points="377.75,-179.59 367.17,-180.11 375.77,-186.3 377.75,-179.59"/>
</g>
<!-- 15&#45;&gt;21 -->
<g id="edge30" class="edge">
<title>15&#45;&gt;21</title>
<path fill="none" stroke="grey" stroke-width="2" d="M569.99,-215.91C580.79,-206.65 592.44,-194.2 598.24,-180 616.4,-135.57 627.67,-109.92 598.24,-72 583.98,-53.64 534.07,-40.55 486.83,-31.97"/>
<polygon fill="grey" stroke="grey" stroke-width="2" points="487.26,-28.5 476.8,-30.21 486.05,-35.39 487.26,-28.5"/>
</g>
<!-- 16 -->
<g id="node16" class="node">
<title>16</title>
<path fill="none" stroke="#d8cb56" stroke-width="2" d="M524.74,-324C524.74,-324 457.74,-324 457.74,-324 451.74,-324 445.74,-318 445.74,-312 445.74,-312 445.74,-300 445.74,-300 445.74,-294 451.74,-288 457.74,-288 457.74,-288 524.74,-288 524.74,-288 530.74,-288 536.74,-294 536.74,-300 536.74,-300 536.74,-312 536.74,-312 536.74,-318 530.74,-324 524.74,-324"/>
<text text-anchor="middle" x="491.24" y="-303.5" font-family="sans" font-size="10.00">trinity_genome</text>
</g>
<!-- 16&#45;&gt;15 -->
<g id="edge22" class="edge">
<title>16&#45;&gt;15</title>
<path fill="none" stroke="grey" stroke-width="2" d="M504.83,-287.7C511.36,-279.39 519.31,-269.28 526.49,-260.14"/>
<polygon fill="grey" stroke="grey" stroke-width="2" points="529.37,-262.13 532.8,-252.1 523.87,-257.81 529.37,-262.13"/>
</g>
<!-- 17 -->
<g id="node17" class="node">
<title>17</title>
<path fill="none" stroke="#56d86b" stroke-width="2" d="M488.74,-396C488.74,-396 437.74,-396 437.74,-396 431.74,-396 425.74,-390 425.74,-384 425.74,-384 425.74,-372 425.74,-372 425.74,-366 431.74,-360 437.74,-360 437.74,-360 488.74,-360 488.74,-360 494.74,-360 500.74,-366 500.74,-372 500.74,-372 500.74,-384 500.74,-384 500.74,-390 494.74,-396 488.74,-396"/>
<text text-anchor="middle" x="463.24" y="-375.5" font-family="sans" font-size="10.00">merge_bam</text>
</g>
<!-- 17&#45;&gt;16 -->
<g id="edge23" class="edge">
<title>17&#45;&gt;16</title>
<path fill="none" stroke="grey" stroke-width="2" d="M470.16,-359.7C473.31,-351.81 477.12,-342.3 480.62,-333.55"/>
<polygon fill="grey" stroke="grey" stroke-width="2" points="483.93,-334.69 484.4,-324.1 477.43,-332.09 483.93,-334.69"/>
</g>
<!-- 18&#45;&gt;17 -->
<g id="edge24" class="edge">
<title>18&#45;&gt;17</title>
<path fill="none" stroke="grey" stroke-width="2" d="M380.15,-431.88C394.4,-422.81 412.09,-411.55 427.47,-401.76"/>
<polygon fill="grey" stroke="grey" stroke-width="2" points="429.67,-404.51 436.23,-396.19 425.91,-398.61 429.67,-404.51"/>
</g>
<!-- 19 -->
<g id="node19" class="node">
<title>19</title>
<path fill="none" stroke="#d8b456" stroke-width="2" d="M383.24,-612C383.24,-612 339.24,-612 339.24,-612 333.24,-612 327.24,-606 327.24,-600 327.24,-600 327.24,-588 327.24,-588 327.24,-582 333.24,-576 339.24,-576 339.24,-576 383.24,-576 383.24,-576 389.24,-576 395.24,-582 395.24,-588 395.24,-588 395.24,-600 395.24,-600 395.24,-606 389.24,-612 383.24,-612"/>
<text text-anchor="middle" x="361.24" y="-591.5" font-family="sans" font-size="10.00">star_index</text>
</g>
<!-- 19&#45;&gt;18 -->
<g id="edge26" class="edge">
<title>19&#45;&gt;18</title>
<path fill="none" stroke="grey" stroke-width="2" d="M368.68,-575.87C375.52,-557.9 383.81,-528.87 378.24,-504 376.22,-495.01 372.51,-485.75 368.54,-477.53"/>
<polygon fill="grey" stroke="grey" stroke-width="2" points="371.55,-475.73 363.86,-468.44 365.33,-478.94 371.55,-475.73"/>
</g>
<!-- 19&#45;&gt;20 -->
<g id="edge28" class="edge">
<title>19&#45;&gt;20</title>
<path fill="none" stroke="grey" stroke-width="2" d="M352.34,-575.7C348.24,-567.73 343.29,-558.1 338.75,-549.26"/>
<polygon fill="grey" stroke="grey" stroke-width="2" points="341.72,-547.4 334.04,-540.1 335.5,-550.6 341.72,-547.4"/>
</g>
<!-- 20&#45;&gt;18 -->
<g id="edge25" class="edge">
<title>20&#45;&gt;18</title>
<path fill="none" stroke="grey" stroke-width="2" d="M332.16,-503.7C335.31,-495.81 339.12,-486.3 342.62,-477.55"/>
<polygon fill="grey" stroke="grey" stroke-width="2" points="345.93,-478.69 346.4,-468.1 339.43,-476.09 345.93,-478.69"/>
</g>
</g>
</svg>
