<?xml version="1.0" encoding="UTF-8" standalone="no"?>
<!DOCTYPE svg PUBLIC "-//W3C//DTD SVG 1.1//EN"
 "http://www.w3.org/Graphics/SVG/1.1/DTD/svg11.dtd">
<!-- Generated by graphviz version 2.43.0 (0)
 -->
<!-- Title: snakemake_dag Pages: 1 -->
<svg width="353pt" height="836pt"
 viewBox="0.00 0.00 352.86 836.00" xmlns="http://www.w3.org/2000/svg" xmlns:xlink="http://www.w3.org/1999/xlink">
<g id="graph0" class="graph" transform="scale(1 1) rotate(0) translate(4 832)">
<title>snakemake_dag</title>
<polygon fill="white" stroke="transparent" points="-4,4 -4,-832 348.86,-832 348.86,4 -4,4"/>
<!-- 1 -->
<g id="node1" class="node">
<title>1</title>
<path fill="none" stroke="#d8a456" stroke-width="2" d="M77,-180C77,-180 12,-180 12,-180 6,-180 0,-174 0,-168 0,-168 0,-156 0,-156 0,-150 6,-144 12,-144 12,-144 77,-144 77,-144 83,-144 89,-150 89,-156 89,-156 89,-168 89,-168 89,-174 83,-180 77,-180"/>
<text text-anchor="middle" x="44.5" y="-159.5" font-family="sans" font-size="10.00">trinity_cleanup</text>
</g>
<!-- 2 -->
<g id="node2" class="node">
<title>2</title>
<path fill="none" stroke="#56d8c9" stroke-width="2" d="M170.5,-252C170.5,-252 140.5,-252 140.5,-252 134.5,-252 128.5,-246 128.5,-240 128.5,-240 128.5,-228 128.5,-228 128.5,-222 134.5,-216 140.5,-216 140.5,-216 170.5,-216 170.5,-216 176.5,-216 182.5,-222 182.5,-228 182.5,-228 182.5,-240 182.5,-240 182.5,-246 176.5,-252 170.5,-252"/>
<text text-anchor="middle" x="155.5" y="-231.5" font-family="sans" font-size="10.00">trinity</text>
</g>
<!-- 2&#45;&gt;1 -->
<g id="edge1" class="edge">
<title>2&#45;&gt;1</title>
<path fill="none" stroke="grey" stroke-width="2" d="M128.35,-215.88C113.97,-206.81 96.12,-195.55 80.59,-185.76"/>
<polygon fill="grey" stroke="grey" stroke-width="2" points="82.08,-182.56 71.76,-180.19 78.35,-188.48 82.08,-182.56"/>
</g>
<!-- 11 -->
<g id="node11" class="node">
<title>11</title>
<path fill="none" stroke="#56d8a2" stroke-width="2" d="M206.5,-36C206.5,-36 108.5,-36 108.5,-36 102.5,-36 96.5,-30 96.5,-24 96.5,-24 96.5,-12 96.5,-12 96.5,-6 102.5,0 108.5,0 108.5,0 206.5,0 206.5,0 212.5,0 218.5,-6 218.5,-12 218.5,-12 218.5,-24 218.5,-24 218.5,-30 212.5,-36 206.5,-36"/>
<text text-anchor="middle" x="157.5" y="-15.5" font-family="sans" font-size="10.00">abundance_to_matrix</text>
</g>
<!-- 2&#45;&gt;11 -->
<g id="edge12" class="edge">
<title>2&#45;&gt;11</title>
<path fill="none" stroke="grey" stroke-width="2" d="M155.66,-215.85C156.01,-178.83 156.83,-91.18 157.24,-46.39"/>
<polygon fill="grey" stroke="grey" stroke-width="2" points="160.75,-46.26 157.34,-36.23 153.75,-46.2 160.75,-46.26"/>
</g>
<!-- 12 -->
<g id="node12" class="node">
<title>12</title>
<path fill="none" stroke="#56c9d8" stroke-width="2" d="M263.5,-108C263.5,-108 183.5,-108 183.5,-108 177.5,-108 171.5,-102 171.5,-96 171.5,-96 171.5,-84 171.5,-84 171.5,-78 177.5,-72 183.5,-72 183.5,-72 263.5,-72 263.5,-72 269.5,-72 275.5,-78 275.5,-84 275.5,-84 275.5,-96 275.5,-96 275.5,-102 269.5,-108 263.5,-108"/>
<text text-anchor="middle" x="223.5" y="-87.5" font-family="sans" font-size="10.00">trinity_abundance</text>
</g>
<!-- 2&#45;&gt;12 -->
<g id="edge14" class="edge">
<title>2&#45;&gt;12</title>
<path fill="none" stroke="grey" stroke-width="2" d="M156.76,-215.71C158.7,-197.1 163.54,-167.06 175.5,-144 180.84,-133.71 188.67,-123.87 196.47,-115.52"/>
<polygon fill="grey" stroke="grey" stroke-width="2" points="199.04,-117.9 203.55,-108.31 194.04,-113 199.04,-117.9"/>
</g>
<!-- 13 -->
<g id="node13" class="node">
<title>13</title>
<path fill="none" stroke="#59d856" stroke-width="2" d="M303,-180C303,-180 196,-180 196,-180 190,-180 184,-174 184,-168 184,-168 184,-156 184,-156 184,-150 190,-144 196,-144 196,-144 303,-144 303,-144 309,-144 315,-150 315,-156 315,-156 315,-168 315,-168 315,-174 309,-180 303,-180"/>
<text text-anchor="middle" x="249.5" y="-159.5" font-family="sans" font-size="10.00">trinity_abundance_prep</text>
</g>
<!-- 2&#45;&gt;13 -->
<g id="edge17" class="edge">
<title>2&#45;&gt;13</title>
<path fill="none" stroke="grey" stroke-width="2" d="M178.74,-215.7C190.69,-206.8 205.42,-195.82 218.35,-186.2"/>
<polygon fill="grey" stroke="grey" stroke-width="2" points="220.6,-188.88 226.53,-180.1 216.42,-183.27 220.6,-188.88"/>
</g>
<!-- 3 -->
<g id="node3" class="node">
<title>3</title>
<path fill="none" stroke="#c6d856" stroke-width="2" d="M297,-324C297,-324 202,-324 202,-324 196,-324 190,-318 190,-312 190,-312 190,-300 190,-300 190,-294 196,-288 202,-288 202,-288 297,-288 297,-288 303,-288 309,-294 309,-300 309,-300 309,-312 309,-312 309,-318 303,-324 297,-324"/>
<text text-anchor="middle" x="249.5" y="-303.5" font-family="sans" font-size="10.00">join_merged_with_r1</text>
</g>
<!-- 3&#45;&gt;2 -->
<g id="edge3" class="edge">
<title>3&#45;&gt;2</title>
<path fill="none" stroke="grey" stroke-width="2" d="M226.26,-287.7C214.31,-278.8 199.58,-267.82 186.65,-258.2"/>
<polygon fill="grey" stroke="grey" stroke-width="2" points="188.58,-255.27 178.47,-252.1 184.4,-260.88 188.58,-255.27"/>
</g>
<!-- 4 -->
<g id="node4" class="node">
<title>4</title>
<path fill="none" stroke="#9fd856" stroke-width="2" d="M228.5,-396C228.5,-396 198.5,-396 198.5,-396 192.5,-396 186.5,-390 186.5,-384 186.5,-384 186.5,-372 186.5,-372 186.5,-366 192.5,-360 198.5,-360 198.5,-360 228.5,-360 228.5,-360 234.5,-360 240.5,-366 240.5,-372 240.5,-372 240.5,-384 240.5,-384 240.5,-390 234.5,-396 228.5,-396"/>
<text text-anchor="middle" x="213.5" y="-375.5" font-family="sans" font-size="10.00">merge</text>
</g>
<!-- 4&#45;&gt;2 -->
<g id="edge4" class="edge">
<title>4&#45;&gt;2</title>
<path fill="none" stroke="grey" stroke-width="2" d="M201.65,-359.95C195.03,-349.85 187.03,-336.6 181.5,-324 172.68,-303.92 165.89,-280 161.46,-262.02"/>
<polygon fill="grey" stroke="grey" stroke-width="2" points="164.84,-261.11 159.12,-252.19 158.03,-262.73 164.84,-261.11"/>
</g>
<!-- 4&#45;&gt;3 -->
<g id="edge5" class="edge">
<title>4&#45;&gt;3</title>
<path fill="none" stroke="grey" stroke-width="2" d="M222.4,-359.7C226.5,-351.73 231.45,-342.1 235.99,-333.26"/>
<polygon fill="grey" stroke="grey" stroke-width="2" points="239.24,-334.6 240.7,-324.1 233.02,-331.4 239.24,-334.6"/>
</g>
<!-- 5 -->
<g id="node5" class="node">
<title>5</title>
<path fill="none" stroke="#d85656" stroke-width="2" d="M228.5,-468C228.5,-468 198.5,-468 198.5,-468 192.5,-468 186.5,-462 186.5,-456 186.5,-456 186.5,-444 186.5,-444 186.5,-438 192.5,-432 198.5,-432 198.5,-432 228.5,-432 228.5,-432 234.5,-432 240.5,-438 240.5,-444 240.5,-444 240.5,-456 240.5,-456 240.5,-462 234.5,-468 228.5,-468"/>
<text text-anchor="middle" x="213.5" y="-447.5" font-family="sans" font-size="10.00">split</text>
</g>
<!-- 5&#45;&gt;2 -->
<g id="edge2" class="edge">
<title>5&#45;&gt;2</title>
<path fill="none" stroke="grey" stroke-width="2" d="M199.18,-431.92C191.6,-422.02 182.8,-408.98 177.5,-396 159.39,-351.65 155.63,-295.3 155.14,-262.38"/>
<polygon fill="grey" stroke="grey" stroke-width="2" points="158.64,-262.15 155.09,-252.17 151.64,-262.19 158.64,-262.15"/>
</g>
<!-- 5&#45;&gt;4 -->
<g id="edge6" class="edge">
<title>5&#45;&gt;4</title>
<path fill="none" stroke="grey" stroke-width="2" d="M213.5,-431.7C213.5,-423.98 213.5,-414.71 213.5,-406.11"/>
<polygon fill="grey" stroke="grey" stroke-width="2" points="217,-406.1 213.5,-396.1 210,-406.1 217,-406.1"/>
</g>
<!-- 5&#45;&gt;12 -->
<g id="edge16" class="edge">
<title>5&#45;&gt;12</title>
<path fill="none" stroke="grey" stroke-width="2" d="M240.75,-434.97C278.87,-413.18 343.5,-367.33 343.5,-307 343.5,-307 343.5,-307 343.5,-233 343.5,-192.55 348.94,-176.23 324.5,-144 314.34,-130.61 299.82,-120.27 284.94,-112.43"/>
<polygon fill="grey" stroke="grey" stroke-width="2" points="286.18,-109.14 275.66,-107.87 283.09,-115.43 286.18,-109.14"/>
</g>
<!-- 6 -->
<g id="node6" class="node">
<title>6</title>
<path fill="none" stroke="#56a2d8" stroke-width="2" d="M228.5,-540C228.5,-540 198.5,-540 198.5,-540 192.5,-540 186.5,-534 186.5,-528 186.5,-528 186.5,-516 186.5,-516 186.5,-510 192.5,-504 198.5,-504 198.5,-504 228.5,-504 228.5,-504 234.5,-504 240.5,-510 240.5,-516 240.5,-516 240.5,-528 240.5,-528 240.5,-534 234.5,-540 228.5,-540"/>
<text text-anchor="middle" x="213.5" y="-519.5" font-family="sans" font-size="10.00">trim</text>
</g>
<!-- 6&#45;&gt;5 -->
<g id="edge7" class="edge">
<title>6&#45;&gt;5</title>
<path fill="none" stroke="grey" stroke-width="2" d="M213.5,-503.7C213.5,-495.98 213.5,-486.71 213.5,-478.11"/>
<polygon fill="grey" stroke="grey" stroke-width="2" points="217,-478.1 213.5,-468.1 210,-478.1 217,-478.1"/>
</g>
<!-- 7 -->
<g id="node7" class="node">
<title>7</title>
<path fill="none" stroke="#d87d56" stroke-width="2" d="M228.5,-612C228.5,-612 198.5,-612 198.5,-612 192.5,-612 186.5,-606 186.5,-600 186.5,-600 186.5,-588 186.5,-588 186.5,-582 192.5,-576 198.5,-576 198.5,-576 228.5,-576 228.5,-576 234.5,-576 240.5,-582 240.5,-588 240.5,-588 240.5,-600 240.5,-600 240.5,-606 234.5,-612 228.5,-612"/>
<text text-anchor="middle" x="213.5" y="-591.5" font-family="sans" font-size="10.00">decon</text>
</g>
<!-- 7&#45;&gt;6 -->
<g id="edge8" class="edge">
<title>7&#45;&gt;6</title>
<path fill="none" stroke="grey" stroke-width="2" d="M213.5,-575.7C213.5,-567.98 213.5,-558.71 213.5,-550.11"/>
<polygon fill="grey" stroke="grey" stroke-width="2" points="217,-550.1 213.5,-540.1 210,-550.1 217,-550.1"/>
</g>
<!-- 8 -->
<g id="node8" class="node">
<title>8</title>
<path fill="none" stroke="#567bd8" stroke-width="2" d="M228.5,-684C228.5,-684 198.5,-684 198.5,-684 192.5,-684 186.5,-678 186.5,-672 186.5,-672 186.5,-660 186.5,-660 186.5,-654 192.5,-648 198.5,-648 198.5,-648 228.5,-648 228.5,-648 234.5,-648 240.5,-654 240.5,-660 240.5,-660 240.5,-672 240.5,-672 240.5,-678 234.5,-684 228.5,-684"/>
<text text-anchor="middle" x="213.5" y="-663.5" font-family="sans" font-size="10.00">repair</text>
</g>
<!-- 8&#45;&gt;7 -->
<g id="edge9" class="edge">
<title>8&#45;&gt;7</title>
<path fill="none" stroke="grey" stroke-width="2" d="M213.5,-647.7C213.5,-639.98 213.5,-630.71 213.5,-622.11"/>
<polygon fill="grey" stroke="grey" stroke-width="2" points="217,-622.1 213.5,-612.1 210,-622.1 217,-622.1"/>
</g>
<!-- 9 -->
<g id="node9" class="node">
<title>9</title>
<path fill="none" stroke="#56d87b" stroke-width="2" d="M249,-756C249,-756 178,-756 178,-756 172,-756 166,-750 166,-744 166,-744 166,-732 166,-732 166,-726 172,-720 178,-720 178,-720 249,-720 249,-720 255,-720 261,-726 261,-732 261,-732 261,-744 261,-744 261,-750 255,-756 249,-756"/>
<text text-anchor="middle" x="213.5" y="-735.5" font-family="sans" font-size="10.00">check_barcodes</text>
</g>
<!-- 9&#45;&gt;8 -->
<g id="edge10" class="edge">
<title>9&#45;&gt;8</title>
<path fill="none" stroke="grey" stroke-width="2" d="M213.5,-719.7C213.5,-711.98 213.5,-702.71 213.5,-694.11"/>
<polygon fill="grey" stroke="grey" stroke-width="2" points="217,-694.1 213.5,-684.1 210,-694.1 217,-694.1"/>
</g>
<!-- 10 -->
<g id="node10" class="node">
<title>10</title>
<path fill="none" stroke="#78d856" stroke-width="2" d="M254.5,-828C254.5,-828 172.5,-828 172.5,-828 166.5,-828 160.5,-822 160.5,-816 160.5,-816 160.5,-804 160.5,-804 160.5,-798 166.5,-792 172.5,-792 172.5,-792 254.5,-792 254.5,-792 260.5,-792 266.5,-798 266.5,-804 266.5,-804 266.5,-816 266.5,-816 266.5,-822 260.5,-828 254.5,-828"/>
<text text-anchor="middle" x="213.5" y="-807.5" font-family="sans" font-size="10.00">combine_read_file</text>
</g>
<!-- 10&#45;&gt;9 -->
<g id="edge11" class="edge">
<title>10&#45;&gt;9</title>
<path fill="none" stroke="grey" stroke-width="2" d="M213.5,-791.7C213.5,-783.98 213.5,-774.71 213.5,-766.11"/>
<polygon fill="grey" stroke="grey" stroke-width="2" points="217,-766.1 213.5,-756.1 210,-766.1 217,-766.1"/>
</g>
<!-- 12&#45;&gt;11 -->
<g id="edge13" class="edge">
<title>12&#45;&gt;11</title>
<path fill="none" stroke="grey" stroke-width="2" d="M207.19,-71.7C199.19,-63.22 189.43,-52.86 180.68,-43.58"/>
<polygon fill="grey" stroke="grey" stroke-width="2" points="183.03,-40.98 173.63,-36.1 177.94,-45.78 183.03,-40.98"/>
</g>
<!-- 13&#45;&gt;12 -->
<g id="edge15" class="edge">
<title>13&#45;&gt;12</title>
<path fill="none" stroke="grey" stroke-width="2" d="M243.07,-143.7C240.14,-135.81 236.61,-126.3 233.36,-117.55"/>
<polygon fill="grey" stroke="grey" stroke-width="2" points="236.62,-116.26 229.85,-108.1 230.05,-118.7 236.62,-116.26"/>
</g>
</g>
</svg>
